<?xml version="1.0" encoding="utf-8"?>
<!-- Generator: Adobe Illustrator 30.7.0, SVG Export Plug-In . SVG Version: 9.03 Build 0)  -->
<svg version="1.0" id="Layer_1" xmlns="http://www.w3.org/2000/svg" xmlns:xlink="http://www.w3.org/1999/xlink" x="0px" y="0px"
	 viewBox="0 0 1280 1280" style="enable-background:new 0 0 1280 1280;" xml:space="preserve">
<style type="text/css">
	.st0{fill:#FFFFFF;}
</style>
<path class="st0" d="M1128.36,14.57H151.64c-77.64,0-140.59,62.93-140.59,140.57v976.73c0,62.28,40.49,115.09,96.58,133.56
	c0.02-0.55,0.31-1.44,1.55-1.62c137.02-21.18,260.57-77.84,369.98-162.57c30.85-23.88,60.15-48.7,88.12-75.56l21.91-21.04
	l41.8-40.84l30.5-29.59l21.8-20.93l26.44-23.71c41.75-37.47,96.2-74.63,148.79-94.94c31.94-12.34,65.15-18.53,99.42-18
	c48.21,0.78,93.23,17,130.69,46.88c26.59,21.2,43.84,45.08,59.95,74.78c0.73,1.35-0.62,4.28-2.35,3.64
	c-32.94-12.3-69.12-15.38-101.46-0.18c-15.87,7.46-29.1,17.34-40.18,30.88c-18.49,22.55-27.95,49.9-29.94,79.11
	c-2.86,42.26,11.32,85.39,34.01,121.04c15.56,24.44,34.45,45.64,56.91,64.02c17.71,14.52,36,27.24,55.87,38.64l54.69,27.99
	c0.2,0.11,0.4,0.29,0.58,0.51c53.85-19.71,92.27-71.41,92.27-132.07V155.14C1268.96,77.5,1206.01,14.57,1128.36,14.57z
	 M958.45,727.33c-10.79-0.6-21.35,0.51-32.67,1.51l0.11-275.88l-157.91,0.02c-16.11,0-31.52-4.39-43.37-14.65
	c-16.36-13.83-23.24-32.52-23.22-53.63l0.18-175.47l-447.42,0.18c-13.41,0-26.53,6.39-35.03,15.78c-7.7,8.5-13.72,19.89-13.72,31.96
	l-0.11,477.83l0.16,459.14l-49.85,13.52c-0.78,0.2-1.49,0.07-1.8-0.13c-0.49-0.29-0.98-0.95-0.98-2.6l0.09-958.12
	c0-12.85,4.57-25.17,9.7-36.09c15.94-34.07,50.23-54.74,87.63-54.71l456.28,0.16c5.97,0,13.54-0.31,17.82,3.97l40.8,40.98
	l44.11,45.02l37.8,38.62l37.29,38.22l46.35,47.3l38.87,39.38c4.71,4.75,9.28,10.61,9.28,18.13l0.07,300.7L958.45,727.33z"/>
</svg>
